<mxfile host="65bd71144e">
    <diagram name="Page-1" id="2YBvvXClWsGukQMizWep">
        <mxGraphModel dx="1186" dy="719" grid="1" gridSize="10" guides="1" tooltips="1" connect="1" arrows="1" fold="1" page="1" pageScale="1" pageWidth="850" pageHeight="1100" math="0" shadow="0">
            <root>
                <mxCell id="0"/>
                <mxCell id="1" parent="0"/>
                <mxCell id="aM9ryv3xv72pqoxQDRHE-5" value="Система" style="shape=umlLifeline;perimeter=lifelinePerimeter;whiteSpace=wrap;html=1;container=0;dropTarget=0;collapsible=0;recursiveResize=0;outlineConnect=0;portConstraint=eastwest;newEdgeStyle={&quot;edgeStyle&quot;:&quot;elbowEdgeStyle&quot;,&quot;elbow&quot;:&quot;vertical&quot;,&quot;curved&quot;:0,&quot;rounded&quot;:0};" parent="1" vertex="1">
                    <mxGeometry x="220" y="40" width="100" height="760" as="geometry"/>
                </mxCell>
                <mxCell id="aM9ryv3xv72pqoxQDRHE-6" value="" style="html=1;points=[];perimeter=orthogonalPerimeter;outlineConnect=0;targetShapes=umlLifeline;portConstraint=eastwest;newEdgeStyle={&quot;edgeStyle&quot;:&quot;elbowEdgeStyle&quot;,&quot;elbow&quot;:&quot;vertical&quot;,&quot;curved&quot;:0,&quot;rounded&quot;:0};" parent="aM9ryv3xv72pqoxQDRHE-5" vertex="1">
                    <mxGeometry x="45" y="80" width="10" height="580" as="geometry"/>
                </mxCell>
                <mxCell id="aM9ryv3xv72pqoxQDRHE-7" value="Ввод логин, пароль" style="html=1;verticalAlign=bottom;endArrow=block;edgeStyle=elbowEdgeStyle;elbow=vertical;curved=0;rounded=0;" parent="1" source="erjCEYYaA4AGDFMexeI4-5" target="aM9ryv3xv72pqoxQDRHE-6" edge="1">
                    <mxGeometry relative="1" as="geometry">
                        <mxPoint x="95" y="120" as="sourcePoint"/>
                        <Array as="points">
                            <mxPoint x="180" y="120"/>
                        </Array>
                    </mxGeometry>
                </mxCell>
                <mxCell id="aM9ryv3xv72pqoxQDRHE-8" value="Вход в систему" style="html=1;verticalAlign=bottom;endArrow=open;dashed=1;endSize=8;edgeStyle=elbowEdgeStyle;elbow=vertical;curved=0;rounded=0;" parent="1" source="aM9ryv3xv72pqoxQDRHE-6" target="erjCEYYaA4AGDFMexeI4-7" edge="1">
                    <mxGeometry relative="1" as="geometry">
                        <mxPoint x="90" y="189.76" as="targetPoint"/>
                        <Array as="points">
                            <mxPoint x="180" y="180"/>
                        </Array>
                        <mxPoint x="260" y="189.76" as="sourcePoint"/>
                    </mxGeometry>
                </mxCell>
                <mxCell id="erjCEYYaA4AGDFMexeI4-1" value="База данных" style="shape=umlLifeline;perimeter=lifelinePerimeter;whiteSpace=wrap;html=1;container=0;dropTarget=0;collapsible=0;recursiveResize=0;outlineConnect=0;portConstraint=eastwest;newEdgeStyle={&quot;edgeStyle&quot;:&quot;elbowEdgeStyle&quot;,&quot;elbow&quot;:&quot;vertical&quot;,&quot;curved&quot;:0,&quot;rounded&quot;:0};" parent="1" vertex="1">
                    <mxGeometry x="360" y="40" width="100" height="760" as="geometry"/>
                </mxCell>
                <mxCell id="erjCEYYaA4AGDFMexeI4-2" value="" style="html=1;points=[];perimeter=orthogonalPerimeter;outlineConnect=0;targetShapes=umlLifeline;portConstraint=eastwest;newEdgeStyle={&quot;edgeStyle&quot;:&quot;elbowEdgeStyle&quot;,&quot;elbow&quot;:&quot;vertical&quot;,&quot;curved&quot;:0,&quot;rounded&quot;:0};" parent="erjCEYYaA4AGDFMexeI4-1" vertex="1">
                    <mxGeometry x="45" y="100" width="10" height="550" as="geometry"/>
                </mxCell>
                <mxCell id="erjCEYYaA4AGDFMexeI4-3" value="Магазин" style="shape=umlLifeline;perimeter=lifelinePerimeter;whiteSpace=wrap;html=1;container=0;dropTarget=0;collapsible=0;recursiveResize=0;outlineConnect=0;portConstraint=eastwest;newEdgeStyle={&quot;edgeStyle&quot;:&quot;elbowEdgeStyle&quot;,&quot;elbow&quot;:&quot;vertical&quot;,&quot;curved&quot;:0,&quot;rounded&quot;:0};" parent="1" vertex="1">
                    <mxGeometry x="530" y="40" width="100" height="760" as="geometry"/>
                </mxCell>
                <mxCell id="erjCEYYaA4AGDFMexeI4-4" value="" style="html=1;points=[];perimeter=orthogonalPerimeter;outlineConnect=0;targetShapes=umlLifeline;portConstraint=eastwest;newEdgeStyle={&quot;edgeStyle&quot;:&quot;elbowEdgeStyle&quot;,&quot;elbow&quot;:&quot;vertical&quot;,&quot;curved&quot;:0,&quot;rounded&quot;:0};" parent="erjCEYYaA4AGDFMexeI4-3" vertex="1">
                    <mxGeometry x="45" y="580" width="10" height="60" as="geometry"/>
                </mxCell>
                <mxCell id="erjCEYYaA4AGDFMexeI4-5" value="" style="shape=umlLifeline;perimeter=lifelinePerimeter;whiteSpace=wrap;html=1;container=1;dropTarget=0;collapsible=0;recursiveResize=0;outlineConnect=0;portConstraint=eastwest;newEdgeStyle={&quot;curved&quot;:0,&quot;rounded&quot;:0};participant=umlActor;" parent="1" vertex="1">
                    <mxGeometry x="70" y="40" width="20" height="760" as="geometry"/>
                </mxCell>
                <mxCell id="erjCEYYaA4AGDFMexeI4-7" value="" style="html=1;points=[[0,0,0,0,5],[0,1,0,0,-5],[1,0,0,0,5],[1,1,0,0,-5]];perimeter=orthogonalPerimeter;outlineConnect=0;targetShapes=umlLifeline;portConstraint=eastwest;newEdgeStyle={&quot;curved&quot;:0,&quot;rounded&quot;:0};" parent="erjCEYYaA4AGDFMexeI4-5" vertex="1">
                    <mxGeometry x="5" y="80" width="10" height="580" as="geometry"/>
                </mxCell>
                <mxCell id="erjCEYYaA4AGDFMexeI4-6" value="Проверка на наличие&lt;br&gt;пользователя" style="html=1;verticalAlign=bottom;endArrow=block;edgeStyle=elbowEdgeStyle;elbow=vertical;curved=0;rounded=0;" parent="1" edge="1">
                    <mxGeometry relative="1" as="geometry">
                        <mxPoint x="275" y="140" as="sourcePoint"/>
                        <Array as="points">
                            <mxPoint x="325" y="140"/>
                        </Array>
                        <mxPoint x="405" y="140" as="targetPoint"/>
                    </mxGeometry>
                </mxCell>
                <mxCell id="erjCEYYaA4AGDFMexeI4-9" value="Пользователь найден" style="html=1;verticalAlign=bottom;endArrow=open;dashed=1;endSize=8;curved=0;rounded=0;" parent="1" source="erjCEYYaA4AGDFMexeI4-2" target="aM9ryv3xv72pqoxQDRHE-6" edge="1">
                    <mxGeometry relative="1" as="geometry">
                        <mxPoint x="400" y="170" as="sourcePoint"/>
                        <mxPoint x="280" y="170" as="targetPoint"/>
                        <Array as="points">
                            <mxPoint x="340" y="170"/>
                        </Array>
                    </mxGeometry>
                </mxCell>
                <mxCell id="erjCEYYaA4AGDFMexeI4-11" value="Выбор магазина" style="html=1;verticalAlign=bottom;endArrow=block;edgeStyle=elbowEdgeStyle;elbow=vertical;curved=0;rounded=0;" parent="1" source="erjCEYYaA4AGDFMexeI4-7" target="aM9ryv3xv72pqoxQDRHE-6" edge="1">
                    <mxGeometry relative="1" as="geometry">
                        <mxPoint x="90" y="220" as="sourcePoint"/>
                        <Array as="points">
                            <mxPoint x="190" y="260"/>
                        </Array>
                        <mxPoint x="260" y="220" as="targetPoint"/>
                    </mxGeometry>
                </mxCell>
                <mxCell id="erjCEYYaA4AGDFMexeI4-12" value="Получение видеокассет, &lt;br&gt;имеющихся в магазине" style="html=1;verticalAlign=bottom;endArrow=block;edgeStyle=elbowEdgeStyle;elbow=vertical;curved=0;rounded=0;" parent="1" edge="1">
                    <mxGeometry relative="1" as="geometry">
                        <mxPoint x="275" y="280" as="sourcePoint"/>
                        <Array as="points">
                            <mxPoint x="320" y="280"/>
                        </Array>
                        <mxPoint x="405" y="280" as="targetPoint"/>
                        <mxPoint as="offset"/>
                    </mxGeometry>
                </mxCell>
                <mxCell id="erjCEYYaA4AGDFMexeI4-15" value="Просмотр каталога видеокассет" style="html=1;verticalAlign=bottom;endArrow=open;dashed=1;endSize=8;curved=0;rounded=0;" parent="1" source="aM9ryv3xv72pqoxQDRHE-6" target="erjCEYYaA4AGDFMexeI4-7" edge="1">
                    <mxGeometry relative="1" as="geometry">
                        <mxPoint x="260" y="290" as="sourcePoint"/>
                        <mxPoint x="90" y="225" as="targetPoint"/>
                        <Array as="points">
                            <mxPoint x="160" y="330"/>
                        </Array>
                        <mxPoint as="offset"/>
                    </mxGeometry>
                </mxCell>
                <mxCell id="erjCEYYaA4AGDFMexeI4-16" value="Список видеокассет, &lt;br&gt;имеющихся в магазине" style="html=1;verticalAlign=bottom;endArrow=open;dashed=1;endSize=8;curved=0;rounded=0;" parent="1" source="erjCEYYaA4AGDFMexeI4-2" target="aM9ryv3xv72pqoxQDRHE-6" edge="1">
                    <mxGeometry relative="1" as="geometry">
                        <mxPoint x="450" y="310" as="sourcePoint"/>
                        <mxPoint x="280" y="310" as="targetPoint"/>
                        <Array as="points">
                            <mxPoint x="340" y="320"/>
                        </Array>
                    </mxGeometry>
                </mxCell>
                <mxCell id="kkENGntpai7tOkU40R76-1" value="Поиск, &lt;br&gt;выбор видеокассеты" style="html=1;verticalAlign=bottom;endArrow=block;edgeStyle=elbowEdgeStyle;elbow=vertical;curved=0;rounded=0;" parent="1" source="erjCEYYaA4AGDFMexeI4-7" target="aM9ryv3xv72pqoxQDRHE-6" edge="1">
                    <mxGeometry relative="1" as="geometry">
                        <mxPoint x="90" y="370" as="sourcePoint"/>
                        <Array as="points">
                            <mxPoint x="190" y="400"/>
                        </Array>
                        <mxPoint x="260" y="370" as="targetPoint"/>
                    </mxGeometry>
                </mxCell>
                <mxCell id="kkENGntpai7tOkU40R76-3" value="Получение информации&lt;br&gt;о видеокассете" style="html=1;verticalAlign=bottom;endArrow=block;edgeStyle=elbowEdgeStyle;elbow=horizontal;curved=0;rounded=0;" parent="1" source="aM9ryv3xv72pqoxQDRHE-6" target="erjCEYYaA4AGDFMexeI4-2" edge="1">
                    <mxGeometry relative="1" as="geometry">
                        <mxPoint x="320" y="410" as="sourcePoint"/>
                        <Array as="points">
                            <mxPoint x="340" y="410"/>
                        </Array>
                        <mxPoint x="400" y="410" as="targetPoint"/>
                    </mxGeometry>
                </mxCell>
                <mxCell id="kkENGntpai7tOkU40R76-4" value="Информация о&lt;br&gt;видеокассете" style="html=1;verticalAlign=bottom;endArrow=open;dashed=1;endSize=8;curved=0;rounded=0;" parent="1" source="erjCEYYaA4AGDFMexeI4-2" target="aM9ryv3xv72pqoxQDRHE-6" edge="1">
                    <mxGeometry relative="1" as="geometry">
                        <mxPoint x="400" y="460" as="sourcePoint"/>
                        <mxPoint x="280" y="460" as="targetPoint"/>
                        <Array as="points">
                            <mxPoint x="345" y="460"/>
                        </Array>
                    </mxGeometry>
                </mxCell>
                <mxCell id="kkENGntpai7tOkU40R76-5" value="Просмотр карточки видекассеты" style="html=1;verticalAlign=bottom;endArrow=open;dashed=1;endSize=8;curved=0;rounded=0;" parent="1" source="aM9ryv3xv72pqoxQDRHE-6" target="erjCEYYaA4AGDFMexeI4-7" edge="1">
                    <mxGeometry x="0.0038" relative="1" as="geometry">
                        <mxPoint x="250" y="480" as="sourcePoint"/>
                        <mxPoint x="100" y="480" as="targetPoint"/>
                        <Array as="points">
                            <mxPoint x="145" y="480"/>
                        </Array>
                        <mxPoint as="offset"/>
                    </mxGeometry>
                </mxCell>
                <mxCell id="kkENGntpai7tOkU40R76-6" value="Бронирование или&lt;br&gt;&amp;nbsp;заказ видеокассеты" style="html=1;verticalAlign=bottom;endArrow=block;edgeStyle=elbowEdgeStyle;elbow=vertical;curved=0;rounded=0;" parent="1" source="erjCEYYaA4AGDFMexeI4-7" target="aM9ryv3xv72pqoxQDRHE-6" edge="1">
                    <mxGeometry relative="1" as="geometry">
                        <mxPoint x="90" y="560" as="sourcePoint"/>
                        <Array as="points">
                            <mxPoint x="195" y="540"/>
                        </Array>
                        <mxPoint x="260" y="560" as="targetPoint"/>
                    </mxGeometry>
                </mxCell>
                <mxCell id="kkENGntpai7tOkU40R76-7" value="Проверка наличия&lt;br&gt;видеокассеты" style="html=1;verticalAlign=bottom;endArrow=block;edgeStyle=elbowEdgeStyle;elbow=vertical;curved=0;rounded=0;" parent="1" source="aM9ryv3xv72pqoxQDRHE-6" target="erjCEYYaA4AGDFMexeI4-2" edge="1">
                    <mxGeometry relative="1" as="geometry">
                        <mxPoint x="300" y="580" as="sourcePoint"/>
                        <Array as="points">
                            <mxPoint x="390" y="560"/>
                        </Array>
                        <mxPoint x="390" y="580" as="targetPoint"/>
                    </mxGeometry>
                </mxCell>
                <mxCell id="kkENGntpai7tOkU40R76-8" value="Видеокассета &lt;br&gt;имеется в наличии" style="html=1;verticalAlign=bottom;endArrow=open;dashed=1;endSize=8;curved=0;rounded=0;" parent="1" source="erjCEYYaA4AGDFMexeI4-2" target="aM9ryv3xv72pqoxQDRHE-6" edge="1">
                    <mxGeometry relative="1" as="geometry">
                        <mxPoint x="400" y="600" as="sourcePoint"/>
                        <mxPoint x="280" y="600" as="targetPoint"/>
                        <Array as="points">
                            <mxPoint x="340" y="600"/>
                        </Array>
                    </mxGeometry>
                </mxCell>
                <mxCell id="kkENGntpai7tOkU40R76-9" value="Заказ/бронирование&lt;br&gt;видеокассеты" style="html=1;verticalAlign=bottom;endArrow=block;edgeStyle=elbowEdgeStyle;elbow=vertical;curved=0;rounded=0;" parent="1" source="aM9ryv3xv72pqoxQDRHE-6" target="erjCEYYaA4AGDFMexeI4-4" edge="1">
                    <mxGeometry x="0.4333" relative="1" as="geometry">
                        <mxPoint x="430" y="640" as="sourcePoint"/>
                        <Array as="points">
                            <mxPoint x="540" y="620"/>
                        </Array>
                        <mxPoint x="555" y="640" as="targetPoint"/>
                        <mxPoint as="offset"/>
                    </mxGeometry>
                </mxCell>
                <mxCell id="kkENGntpai7tOkU40R76-13" value="Изменение параметра &lt;br&gt;&quot;в наличии&quot;&lt;br&gt;у видеокассеты" style="html=1;verticalAlign=bottom;endArrow=open;dashed=1;endSize=8;curved=0;rounded=0;" parent="1" source="erjCEYYaA4AGDFMexeI4-4" target="erjCEYYaA4AGDFMexeI4-2" edge="1">
                    <mxGeometry relative="1" as="geometry">
                        <mxPoint x="550" y="670" as="sourcePoint"/>
                        <mxPoint x="420" y="670" as="targetPoint"/>
                        <Array as="points">
                            <mxPoint x="490" y="680"/>
                        </Array>
                    </mxGeometry>
                </mxCell>
                <mxCell id="kkENGntpai7tOkU40R76-14" value="Сообщение об &lt;br&gt;успешности&lt;br style=&quot;border-color: var(--border-color); background-color: rgb(251, 251, 251);&quot;&gt;&lt;span style=&quot;border-color: var(--border-color);&quot;&gt;заказа или &lt;br&gt;бронирования&lt;/span&gt;" style="html=1;verticalAlign=bottom;endArrow=open;dashed=1;endSize=8;curved=0;rounded=0;" parent="1" source="aM9ryv3xv72pqoxQDRHE-6" target="erjCEYYaA4AGDFMexeI4-7" edge="1">
                    <mxGeometry relative="1" as="geometry">
                        <mxPoint x="240" y="700" as="sourcePoint"/>
                        <mxPoint x="90" y="700" as="targetPoint"/>
                        <Array as="points">
                            <mxPoint x="175" y="700"/>
                        </Array>
                    </mxGeometry>
                </mxCell>
                <mxCell id="kkENGntpai7tOkU40R76-15" value="Информация обновлена" style="html=1;verticalAlign=bottom;endArrow=open;dashed=1;endSize=8;curved=0;rounded=0;" parent="1" source="erjCEYYaA4AGDFMexeI4-2" target="aM9ryv3xv72pqoxQDRHE-6" edge="1">
                    <mxGeometry relative="1" as="geometry">
                        <mxPoint x="400" y="690" as="sourcePoint"/>
                        <mxPoint x="280" y="690" as="targetPoint"/>
                        <Array as="points">
                            <mxPoint x="335" y="690"/>
                        </Array>
                    </mxGeometry>
                </mxCell>
            </root>
        </mxGraphModel>
    </diagram>
</mxfile>